<?xml version="1.0" encoding="UTF-8" ?>
<svg version="1.1" xmlns="http://www.w3.org/2000/svg" xmlns:xlink="http://www.w3.org/1999/xlink" width="1268" height="740">
    <g>
        <g transform="translate(-6,-6) scale(1,1)">
            <rect fill="#C0C0C0" stroke="none" x="23" y="23" width="355.2" height="15" opacity="0.2"/>
        </g>
    <g transform="translate(-6,-6) scale(1,1)">
            <rect fill="#C0C0C0" stroke="none" x="23" y="37" width="888" height="706" opacity="0.2"/>
    </g>
<g transform="translate(-6,-6) scale(1,1)">
<rect fill="#ffffff" stroke="none" x="16" y="31" width="888" height="705"/>
</g>
<g transform="translate(-6,-6) scale(1,1)">
<path fill="none" stroke="#000000" d="M 16 31 L 904 31 L 904 736 L 16 736 L 16 31 Z Z" stroke-miterlimit="10"/>
</g>
<g transform="translate(-6,-6) scale(1,1)">
<rect fill="#ffffff" stroke="none" x="16" y="16" width="355.2" height="15"/>
</g>
<g transform="translate(-6,-6) scale(1,1)">
<path fill="none" stroke="#000000" d="M 16 16 L 371.2 16 L 371.2 31 L 16 31 L 16 16 Z Z" stroke-miterlimit="10"/>
</g>
<g transform="translate(-6,-6) scale(1,1)">
<rect fill="#ffffff" stroke="none" x="16" y="30" width="888" height="706"/>
</g>
<g transform="translate(-6,-6) scale(1,1)">
<path fill="none" stroke="#000000" d="M 16 30 L 904 30 L 904 736 L 16 736 L 16 30 Z Z" stroke-miterlimit="10"/>
</g>
<g transform="translate(-6,-6) scale(1,1)">
<g>
<path fill="none" stroke="none"/>
<text fill="#000000" stroke="none" font-family="Arial" font-size="13px" font-style="normal" font-weight="bold" text-decoration="none" x="413.773193359375" y="48.5">fr.diginamic.bo</text>
</g>
</g>
<g transform="translate(-6,-6) scale(1,1)">
<rect fill="#C0C0C0" stroke="none" x="327" y="335" width="157.82080078125" height="147" opacity="0.2"/>
</g>
<g transform="translate(-6,-6) scale(1,1)">
<rect fill="#ffffff" stroke="none" x="320" y="328" width="157.82080078125" height="147"/>
</g>
<g transform="translate(-6,-6) scale(1,1)">
<path fill="none" stroke="#000000" d="M 320 328 L 477.82080078125 328 L 477.82080078125 475 L 320 475 L 320 328 Z Z" stroke-miterlimit="10"/>
</g>
<g transform="translate(-6,-6) scale(1,1)">
<path fill="none" stroke="#000000" d="M 320 353 L 477.82080078125 353" stroke-miterlimit="10"/>
</g>
<g transform="translate(-6,-6) scale(1,1)">
<path fill="none" stroke="#000000" d="M 320 451 L 477.82080078125 451" stroke-miterlimit="10"/>
</g>
<g transform="translate(-6,-6) scale(1,1)">
<g>
<path fill="none" stroke="none"/>
<text fill="#000000" stroke="none" font-family="Arial" font-size="13px" font-style="normal" font-weight="bold" text-decoration="none" x="385.548583984375" y="345.5">Film</text>
</g>
</g>
<g transform="translate(-6,-6) scale(1,1)">
<g>
<path fill="none" stroke="none"/>
<text fill="#000000" stroke="none" font-family="Arial" font-size="13px" font-style="normal" font-weight="normal" text-decoration="none" x="325" y="368.5">-id: Integer {id, unique}</text>
</g>
</g>
<g transform="translate(-6,-6) scale(1,1)">
<g>
<path fill="none" stroke="none"/>
<text fill="#000000" stroke="none" font-family="Arial" font-size="13px" font-style="normal" font-weight="normal" text-decoration="none" x="325" y="383.5">-nom: String</text>
</g>
</g>
<g transform="translate(-6,-6) scale(1,1)">
<g>
<path fill="none" stroke="none"/>
<text fill="#000000" stroke="none" font-family="Arial" font-size="13px" font-style="normal" font-weight="normal" text-decoration="none" x="325" y="398.5">-url: String {unique}</text>
</g>
</g>
<g transform="translate(-6,-6) scale(1,1)">
<g>
<path fill="none" stroke="none"/>
<text fill="#000000" stroke="none" font-family="Arial" font-size="13px" font-style="normal" font-weight="normal" text-decoration="none" x="325" y="413.5">-plot: String</text>
</g>
</g>
<g transform="translate(-6,-6) scale(1,1)">
<g>
<path fill="none" stroke="none"/>
<text fill="#000000" stroke="none" font-family="Arial" font-size="13px" font-style="normal" font-weight="normal" text-decoration="none" x="325" y="428.5">-lieuTournage: String</text>
</g>
</g>
<g transform="translate(-6,-6) scale(1,1)">
<g>
<path fill="none" stroke="none"/>
<text fill="#000000" stroke="none" font-family="Arial" font-size="13px" font-style="normal" font-weight="normal" text-decoration="none" x="325" y="443.5">-anneeSortie: Integer</text>
</g>
</g>
<g transform="translate(-6,-6) scale(1,1)">
<path fill="none" stroke="#000000" d="M 398 476 L 398 599" stroke-miterlimit="10"/>
</g>
<g transform="translate(-6,-6) scale(1,1)">
<g>
<path fill="none" stroke="none"/>
<text fill="#000000" stroke="none" font-family="Arial" font-size="13px" font-style="normal" font-weight="normal" text-decoration="none" x="377.5" y="540.5">+Necessiter</text>
</g>
</g>
<g transform="translate(-6,-6) scale(1,1)">
<g>
<path fill="none" stroke="none"/>
<text fill="#000000" stroke="none" font-family="Arial" font-size="13px" font-style="normal" font-weight="normal" text-decoration="none" x="375.5" y="501.5">0..*</text>
</g>
</g>
<g transform="translate(-6,-6) scale(1,1)">
<g>
<path fill="none" stroke="none"/>
<text fill="#000000" stroke="none" font-family="Arial" font-size="13px" font-style="normal" font-weight="normal" text-decoration="none" x="375.5" y="581.5">1..*</text>
</g>
</g>
<g transform="translate(-6,-6) scale(1,1)">
<rect fill="#C0C0C0" stroke="none" x="327" y="607" width="157.82080078125" height="117" opacity="0.2"/>
</g>
<g transform="translate(-6,-6) scale(1,1)">
<rect fill="#ffffff" stroke="none" x="320" y="600" width="157.82080078125" height="117"/>
</g>
<g transform="translate(-6,-6) scale(1,1)">
<path fill="none" stroke="#000000" d="M 320 600 L 477.82080078125 600 L 477.82080078125 717 L 320 717 L 320 600 Z Z" stroke-miterlimit="10"/>
</g>
<g transform="translate(-6,-6) scale(1,1)">
<path fill="none" stroke="#000000" d="M 320 625 L 477.82080078125 625" stroke-miterlimit="10"/>
</g>
<g transform="translate(-6,-6) scale(1,1)">
<path fill="none" stroke="#000000" d="M 320 693 L 477.82080078125 693" stroke-miterlimit="10"/>
</g>
<g transform="translate(-6,-6) scale(1,1)">
<g>
<path fill="none" stroke="none"/>
<text fill="#000000" stroke="none" font-family="Arial" font-size="13px" font-style="normal" font-weight="bold" text-decoration="none" x="347.621337890625" y="617.5">CastingPrincipal</text>
</g>
</g>
<g transform="translate(-6,-6) scale(1,1)">
<g>
<path fill="none" stroke="none"/>
<text fill="#000000" stroke="none" font-family="Arial" font-size="13px" font-style="normal" font-weight="normal" text-decoration="none" x="325" y="640.5">-id: Integer {id, unique}</text>
</g>
</g>
<g transform="translate(-6,-6) scale(1,1)">
<g>
<path fill="none" stroke="none"/>
<text fill="#000000" stroke="none" font-family="Arial" font-size="13px" font-style="normal" font-weight="normal" text-decoration="none" x="325" y="655.5">-nameId: String {unique}</text>
</g>
</g>
<g transform="translate(-6,-6) scale(1,1)">
<g>
<path fill="none" stroke="none"/>
<text fill="#000000" stroke="none" font-family="Arial" font-size="13px" font-style="normal" font-weight="normal" text-decoration="none" x="325" y="670.5">-Identite: String</text>
</g>
</g>
<g transform="translate(-6,-6) scale(1,1)">
<g>
<path fill="none" stroke="none"/>
<text fill="#000000" stroke="none" font-family="Arial" font-size="13px" font-style="normal" font-weight="normal" text-decoration="none" x="325" y="685.5">-url: String {unique}</text>
</g>
</g>
<g transform="translate(-6,-6) scale(1,1)">
<path fill="none" stroke="#000000" d="M 479 658 L 679 659" stroke-miterlimit="10"/>
</g>
<g transform="translate(-6,-6) scale(1,1)">
<g>
<path fill="none" stroke="none"/>
<text fill="#000000" stroke="none" font-family="Arial" font-size="13px" font-style="normal" font-weight="normal" text-decoration="none" x="557.5" y="647.5">+Naitre</text>
</g>
</g>
<g transform="translate(-6,-6) scale(1,1)">
<g>
<path fill="none" stroke="none"/>
<text fill="#000000" stroke="none" font-family="Arial" font-size="13px" font-style="normal" font-weight="normal" text-decoration="none" x="490.5" y="674.5">0..*</text>
</g>
</g>
<g transform="translate(-6,-6) scale(1,1)">
<g>
<path fill="none" stroke="none"/>
<text fill="#000000" stroke="none" font-family="Arial" font-size="13px" font-style="normal" font-weight="normal" text-decoration="none" x="653.5" y="675.5">1</text>
</g>
</g>
<g transform="translate(-6,-6) scale(1,1)">
<rect fill="#C0C0C0" stroke="none" x="687" y="615" width="165.0888671875" height="102" opacity="0.2"/>
</g>
<g transform="translate(-6,-6) scale(1,1)">
<rect fill="#ffffff" stroke="none" x="680" y="608" width="165.0888671875" height="102"/>
</g>
<g transform="translate(-6,-6) scale(1,1)">
<path fill="none" stroke="#000000" d="M 680 608 L 845.0888671875 608 L 845.0888671875 710 L 680 710 L 680 608 Z Z" stroke-miterlimit="10"/>
</g>
<g transform="translate(-6,-6) scale(1,1)">
<path fill="none" stroke="#000000" d="M 680 633 L 845.0888671875 633" stroke-miterlimit="10"/>
</g>
<g transform="translate(-6,-6) scale(1,1)">
<path fill="none" stroke="#000000" d="M 680 686 L 845.0888671875 686" stroke-miterlimit="10"/>
</g>
<g transform="translate(-6,-6) scale(1,1)">
<g>
<path fill="none" stroke="none"/>
<text fill="#000000" stroke="none" font-family="Arial" font-size="13px" font-style="normal" font-weight="bold" text-decoration="none" x="730.384033203125" y="625.5">Naissance</text>
</g>
</g>
<g transform="translate(-6,-6) scale(1,1)">
<g>
<path fill="none" stroke="none"/>
<text fill="#000000" stroke="none" font-family="Arial" font-size="13px" font-style="normal" font-weight="normal" text-decoration="none" x="685" y="648.5">-id: Integer {id, unique}</text>
</g>
</g>
<g transform="translate(-6,-6) scale(1,1)">
<g>
<path fill="none" stroke="none"/>
<text fill="#000000" stroke="none" font-family="Arial" font-size="13px" font-style="normal" font-weight="normal" text-decoration="none" x="685" y="663.5">-date: LocalDate</text>
</g>
</g>
<g transform="translate(-6,-6) scale(1,1)">
<g>
<path fill="none" stroke="none"/>
<text fill="#000000" stroke="none" font-family="Arial" font-size="13px" font-style="normal" font-weight="normal" text-decoration="none" x="685" y="678.5">-lieu: String</text>
</g>
</g>
<g transform="translate(-6,-6) scale(1,1)">
<path fill="none" stroke="#000000" d="M 398 152 L 398 327" stroke-miterlimit="10"/>
</g>
<g transform="translate(-6,-6) scale(1,1)">
<g>
<path fill="none" stroke="none"/>
<text fill="#000000" stroke="none" font-family="Arial" font-size="13px" font-style="normal" font-weight="normal" text-decoration="none" x="372.5" y="242.5">+Comprendre</text>
</g>
</g>
<g transform="translate(-6,-6) scale(1,1)">
<g>
<path fill="none" stroke="none"/>
<text fill="#000000" stroke="none" font-family="Arial" font-size="13px" font-style="normal" font-weight="normal" text-decoration="none" x="375.5" y="177.5">0..*</text>
</g>
</g>
<g transform="translate(-6,-6) scale(1,1)">
<g>
<path fill="none" stroke="none"/>
<text fill="#000000" stroke="none" font-family="Arial" font-size="13px" font-style="normal" font-weight="normal" text-decoration="none" x="375.5" y="309.5">1..*</text>
</g>
</g>
<g transform="translate(-6,-6) scale(1,1)">
<path fill="none" stroke="#000000" d="M 479 107 L 607 107" stroke-miterlimit="10"/>
</g>
<g transform="translate(-6,-6) scale(1,1)">
<g>
<path fill="none" stroke="none"/>
<text fill="#000000" stroke="none" font-family="Arial" font-size="13px" font-style="normal" font-weight="normal" text-decoration="none" x="522.5" y="96.5">+Jouer</text>
</g>
</g>
<g transform="translate(-6,-6) scale(1,1)">
<g>
<path fill="none" stroke="none"/>
<text fill="#000000" stroke="none" font-family="Arial" font-size="13px" font-style="normal" font-weight="normal" text-decoration="none" x="489.5" y="123.5">0..1</text>
</g>
</g>
<g transform="translate(-6,-6) scale(1,1)">
<g>
<path fill="none" stroke="none"/>
<text fill="#000000" stroke="none" font-family="Arial" font-size="13px" font-style="normal" font-weight="normal" text-decoration="none" x="575.5" y="123.5">1..*</text>
</g>
</g>
<g transform="translate(-6,-6) scale(1,1)">
<rect fill="#C0C0C0" stroke="none" x="615" y="71" width="157.82080078125" height="87" opacity="0.2"/>
</g>
<g transform="translate(-6,-6) scale(1,1)">
<rect fill="#ffffff" stroke="none" x="608" y="64" width="157.82080078125" height="87"/>
</g>
<g transform="translate(-6,-6) scale(1,1)">
<path fill="none" stroke="#000000" d="M 608 64 L 765.82080078125 64 L 765.82080078125 151 L 608 151 L 608 64 Z Z" stroke-miterlimit="10"/>
</g>
<g transform="translate(-6,-6) scale(1,1)">
<path fill="none" stroke="#000000" d="M 608 89 L 765.82080078125 89" stroke-miterlimit="10"/>
</g>
<g transform="translate(-6,-6) scale(1,1)">
<path fill="none" stroke="#000000" d="M 608 127 L 765.82080078125 127" stroke-miterlimit="10"/>
</g>
<g transform="translate(-6,-6) scale(1,1)">
<g>
<path fill="none" stroke="none"/>
<text fill="#000000" stroke="none" font-family="Arial" font-size="13px" font-style="normal" font-weight="bold" text-decoration="none" x="666.32177734375" y="81.5">Acteur</text>
</g>
</g>
<g transform="translate(-6,-6) scale(1,1)">
<g>
<path fill="none" stroke="none"/>
<text fill="#000000" stroke="none" font-family="Arial" font-size="13px" font-style="normal" font-weight="normal" text-decoration="none" x="613" y="104.5">-id: Integer {id, unique}</text>
</g>
</g>
<g transform="translate(-6,-6) scale(1,1)">
<g>
<path fill="none" stroke="none"/>
<text fill="#000000" stroke="none" font-family="Arial" font-size="13px" font-style="normal" font-weight="normal" text-decoration="none" x="613" y="119.5">-url: String {unique}</text>
</g>
</g>
<g transform="translate(-6,-6) scale(1,1)">
<rect fill="#C0C0C0" stroke="none" x="327" y="71" width="157.82080078125" height="87" opacity="0.2"/>
</g>
<g transform="translate(-6,-6) scale(1,1)">
<rect fill="#ffffff" stroke="none" x="320" y="64" width="157.82080078125" height="87"/>
</g>
<g transform="translate(-6,-6) scale(1,1)">
<path fill="none" stroke="#000000" d="M 320 64 L 477.82080078125 64 L 477.82080078125 151 L 320 151 L 320 64 Z Z" stroke-miterlimit="10"/>
</g>
<g transform="translate(-6,-6) scale(1,1)">
<path fill="none" stroke="#000000" d="M 320 89 L 477.82080078125 89" stroke-miterlimit="10"/>
</g>
<g transform="translate(-6,-6) scale(1,1)">
<path fill="none" stroke="#000000" d="M 320 127 L 477.82080078125 127" stroke-miterlimit="10"/>
</g>
<g transform="translate(-6,-6) scale(1,1)">
<g>
<path fill="none" stroke="none"/>
<text fill="#000000" stroke="none" font-family="Arial" font-size="13px" font-style="normal" font-weight="bold" text-decoration="none" x="384.824951171875" y="81.5">Role</text>
</g>
</g>
<g transform="translate(-6,-6) scale(1,1)">
<g>
<path fill="none" stroke="none"/>
<text fill="#000000" stroke="none" font-family="Arial" font-size="13px" font-style="normal" font-weight="normal" text-decoration="none" x="325" y="104.5">-id: Integer {id, unique}</text>
</g>
</g>
<g transform="translate(-6,-6) scale(1,1)">
<g>
<path fill="none" stroke="none"/>
<text fill="#000000" stroke="none" font-family="Arial" font-size="13px" font-style="normal" font-weight="normal" text-decoration="none" x="325" y="119.5">-characterName: String</text>
</g>
</g>
<g transform="translate(-6,-6) scale(1,1)">
<path fill="none" stroke="#000000" d="M 479 423 L 647 469" stroke-miterlimit="10"/>
</g>
<g transform="translate(-6,-6) scale(1,1)">
<g>
<path fill="none" stroke="none"/>
<text fill="#000000" stroke="none" font-family="Arial" font-size="13px" font-style="normal" font-weight="normal" text-decoration="none" x="544.5" y="435.5">+Parler</text>
</g>
</g>
<g transform="translate(-6,-6) scale(1,1)">
<g>
<path fill="none" stroke="none"/>
<text fill="#000000" stroke="none" font-family="Arial" font-size="13px" font-style="normal" font-weight="normal" text-decoration="none" x="486.5" y="444.5">0..*</text>
</g>
</g>
<g transform="translate(-6,-6) scale(1,1)">
<g>
<path fill="none" stroke="none"/>
<text fill="#000000" stroke="none" font-family="Arial" font-size="13px" font-style="normal" font-weight="normal" text-decoration="none" x="618.5" y="479.5">1</text>
</g>
</g>
<g transform="translate(-6,-6) scale(1,1)">
<rect fill="#C0C0C0" stroke="none" x="655" y="447" width="157.82080078125" height="102" opacity="0.2"/>
</g>
<g transform="translate(-6,-6) scale(1,1)">
<rect fill="#ffffff" stroke="none" x="648" y="440" width="157.82080078125" height="102"/>
</g>
<g transform="translate(-6,-6) scale(1,1)">
<path fill="none" stroke="#000000" d="M 648 440 L 805.82080078125 440 L 805.82080078125 542 L 648 542 L 648 440 Z Z" stroke-miterlimit="10"/>
</g>
<g transform="translate(-6,-6) scale(1,1)">
<path fill="none" stroke="#000000" d="M 648 465 L 805.82080078125 465" stroke-miterlimit="10"/>
</g>
<g transform="translate(-6,-6) scale(1,1)">
<path fill="none" stroke="#000000" d="M 648 518 L 805.82080078125 518" stroke-miterlimit="10"/>
</g>
<g transform="translate(-6,-6) scale(1,1)">
<g>
<path fill="none" stroke="none"/>
<text fill="#000000" stroke="none" font-family="Arial" font-size="13px" font-style="normal" font-weight="bold" text-decoration="none" x="703.798583984375" y="457.5">Langue</text>
</g>
</g>
<g transform="translate(-6,-6) scale(1,1)">
<g>
<path fill="none" stroke="none"/>
<text fill="#000000" stroke="none" font-family="Arial" font-size="13px" font-style="normal" font-weight="normal" text-decoration="none" x="653" y="480.5">-id: Integer {id, unique}</text>
</g>
</g>
<g transform="translate(-6,-6) scale(1,1)">
<g>
<path fill="none" stroke="none"/>
<text fill="#000000" stroke="none" font-family="Arial" font-size="13px" font-style="normal" font-weight="normal" text-decoration="none" x="653" y="495.5">-nom: String {unique}</text>
</g>
</g>
<g transform="translate(-6,-6) scale(1,1)">
<g>
<path fill="none" stroke="none"/>
<text fill="#000000" stroke="none" font-family="Arial" font-size="13px" font-style="normal" font-weight="normal" text-decoration="none" x="653" y="510.5">-code: String {unique}</text>
</g>
</g>
<g transform="translate(-6,-6) scale(1,1)">
<path fill="none" stroke="#000000" d="M 479 377 L 639 330" stroke-miterlimit="10"/>
</g>
<g transform="translate(-6,-6) scale(1,1)">
<g>
<path fill="none" stroke="none"/>
<text fill="#000000" stroke="none" font-family="Arial" font-size="13px" font-style="normal" font-weight="normal" text-decoration="none" x="526.5" y="342.5">+Provenir</text>
</g>
</g>
<g transform="translate(-6,-6) scale(1,1)">
<g>
<path fill="none" stroke="none"/>
<text fill="#000000" stroke="none" font-family="Arial" font-size="13px" font-style="normal" font-weight="normal" text-decoration="none" x="493.5" y="386.5">0..*</text>
</g>
</g>
<g transform="translate(-6,-6) scale(1,1)">
<g>
<path fill="none" stroke="none"/>
<text fill="#000000" stroke="none" font-family="Arial" font-size="13px" font-style="normal" font-weight="normal" text-decoration="none" x="617.5" y="352.5">1</text>
</g>
</g>
<g transform="translate(-6,-6) scale(1,1)">
<rect fill="#C0C0C0" stroke="none" x="647" y="263" width="157.82080078125" height="102" opacity="0.2"/>
</g>
<g transform="translate(-6,-6) scale(1,1)">
<rect fill="#ffffff" stroke="none" x="640" y="256" width="157.82080078125" height="102"/>
</g>
<g transform="translate(-6,-6) scale(1,1)">
<path fill="none" stroke="#000000" d="M 640 256 L 797.82080078125 256 L 797.82080078125 358 L 640 358 L 640 256 Z Z" stroke-miterlimit="10"/>
</g>
<g transform="translate(-6,-6) scale(1,1)">
<path fill="none" stroke="#000000" d="M 640 281 L 797.82080078125 281" stroke-miterlimit="10"/>
</g>
<g transform="translate(-6,-6) scale(1,1)">
<path fill="none" stroke="#000000" d="M 640 334 L 797.82080078125 334" stroke-miterlimit="10"/>
</g>
<g transform="translate(-6,-6) scale(1,1)">
<g>
<path fill="none" stroke="none"/>
<text fill="#000000" stroke="none" font-family="Arial" font-size="13px" font-style="normal" font-weight="bold" text-decoration="none" x="703.72998046875" y="273.5">Pays</text>
</g>
</g>
<g transform="translate(-6,-6) scale(1,1)">
<g>
<path fill="none" stroke="none"/>
<text fill="#000000" stroke="none" font-family="Arial" font-size="13px" font-style="normal" font-weight="normal" text-decoration="none" x="645" y="296.5">-id: Integer {id, unique}</text>
</g>
</g>
<g transform="translate(-6,-6) scale(1,1)">
<g>
<path fill="none" stroke="none"/>
<text fill="#000000" stroke="none" font-family="Arial" font-size="13px" font-style="normal" font-weight="normal" text-decoration="none" x="645" y="311.5">-nom: String {unique}</text>
</g>
</g>
<g transform="translate(-6,-6) scale(1,1)">
<g>
<path fill="none" stroke="none"/>
<text fill="#000000" stroke="none" font-family="Arial" font-size="13px" font-style="normal" font-weight="normal" text-decoration="none" x="645" y="326.5">-url: String {unique}</text>
</g>
</g>
<g transform="translate(-6,-6) scale(1,1)">
<path fill="none" stroke="#000000" d="M 207 504 L 319 443" stroke-miterlimit="10"/>
</g>
<g transform="translate(-6,-6) scale(1,1)">
<g>
<path fill="none" stroke="none"/>
<text fill="#000000" stroke="none" font-family="Arial" font-size="13px" font-style="normal" font-weight="normal" text-decoration="none" x="229.5" y="463.5">+Classer</text>
</g>
</g>
<g transform="translate(-6,-6) scale(1,1)">
<g>
<path fill="none" stroke="none"/>
<text fill="#000000" stroke="none" font-family="Arial" font-size="13px" font-style="normal" font-weight="normal" text-decoration="none" x="221.5" y="508.5">1..*</text>
</g>
</g>
<g transform="translate(-6,-6) scale(1,1)">
<g>
<path fill="none" stroke="none"/>
<text fill="#000000" stroke="none" font-family="Arial" font-size="13px" font-style="normal" font-weight="normal" text-decoration="none" x="295.5" y="468.5">0..*</text>
</g>
</g>
<g transform="translate(-6,-6) scale(1,1)">
<path fill="none" stroke="#000000" d="M 223 326 L 319 367" stroke-miterlimit="10"/>
</g>
<g transform="translate(-6,-6) scale(1,1)">
<g>
<path fill="none" stroke="none"/>
<text fill="#000000" stroke="none" font-family="Arial" font-size="13px" font-style="normal" font-weight="normal" text-decoration="none" x="249.5" y="336.5">+Realiser</text>
</g>
</g>
<g transform="translate(-6,-6) scale(1,1)">
<g>
<path fill="none" stroke="none"/>
<text fill="#000000" stroke="none" font-family="Arial" font-size="13px" font-style="normal" font-weight="normal" text-decoration="none" x="228.5" y="349.5">1..*</text>
</g>
</g>
<g transform="translate(-6,-6) scale(1,1)">
<g>
<path fill="none" stroke="none"/>
<text fill="#000000" stroke="none" font-family="Arial" font-size="13px" font-style="normal" font-weight="normal" text-decoration="none" x="284.5" y="373.5">0..*</text>
</g>
</g>
<g transform="translate(-6,-6) scale(1,1)">
<rect fill="#C0C0C0" stroke="none" x="71" y="247" width="157.82080078125" height="102" opacity="0.2"/>
</g>
<g transform="translate(-6,-6) scale(1,1)">
<rect fill="#ffffff" stroke="none" x="64" y="240" width="157.82080078125" height="102"/>
</g>
<g transform="translate(-6,-6) scale(1,1)">
<path fill="none" stroke="#000000" d="M 64 240 L 221.82080078125 240 L 221.82080078125 342 L 64 342 L 64 240 Z Z" stroke-miterlimit="10"/>
</g>
<g transform="translate(-6,-6) scale(1,1)">
<path fill="none" stroke="#000000" d="M 64 265 L 221.82080078125 265" stroke-miterlimit="10"/>
</g>
<g transform="translate(-6,-6) scale(1,1)">
<path fill="none" stroke="#000000" d="M 64 318 L 221.82080078125 318" stroke-miterlimit="10"/>
</g>
<g transform="translate(-6,-6) scale(1,1)">
<g>
<path fill="none" stroke="none"/>
<text fill="#000000" stroke="none" font-family="Arial" font-size="13px" font-style="normal" font-weight="bold" text-decoration="none" x="107.864990234375" y="257.5">Realisateur</text>
</g>
</g>
<g transform="translate(-6,-6) scale(1,1)">
<g>
<path fill="none" stroke="none"/>
<text fill="#000000" stroke="none" font-family="Arial" font-size="13px" font-style="normal" font-weight="normal" text-decoration="none" x="69" y="280.5">-id: Integer {id, unique}</text>
</g>
</g>
<g transform="translate(-6,-6) scale(1,1)">
<g>
<path fill="none" stroke="none"/>
<text fill="#000000" stroke="none" font-family="Arial" font-size="13px" font-style="normal" font-weight="normal" text-decoration="none" x="69" y="295.5">-identite: String</text>
</g>
</g>
<g transform="translate(-6,-6) scale(1,1)">
<g>
<path fill="none" stroke="none"/>
<text fill="#000000" stroke="none" font-family="Arial" font-size="13px" font-style="normal" font-weight="normal" text-decoration="none" x="69" y="310.5">-url: String</text>
</g>
</g>
<g transform="translate(-6,-6) scale(1,1)">
<rect fill="#C0C0C0" stroke="none" x="55" y="511" width="157.82080078125" height="87" opacity="0.2"/>
</g>
<g transform="translate(-6,-6) scale(1,1)">
<rect fill="#ffffff" stroke="none" x="48" y="504" width="157.82080078125" height="87"/>
</g>
<g transform="translate(-6,-6) scale(1,1)">
<path fill="none" stroke="#000000" d="M 48 504 L 205.82080078125 504 L 205.82080078125 591 L 48 591 L 48 504 Z Z" stroke-miterlimit="10"/>
</g>
<g transform="translate(-6,-6) scale(1,1)">
<path fill="none" stroke="#000000" d="M 48 529 L 205.82080078125 529" stroke-miterlimit="10"/>
</g>
<g transform="translate(-6,-6) scale(1,1)">
<path fill="none" stroke="#000000" d="M 48 567 L 205.82080078125 567" stroke-miterlimit="10"/>
</g>
<g transform="translate(-6,-6) scale(1,1)">
<g>
<path fill="none" stroke="none"/>
<text fill="#000000" stroke="none" font-family="Arial" font-size="13px" font-style="normal" font-weight="bold" text-decoration="none" x="108.12451171875" y="521.5">Genre</text>
</g>
</g>
<g transform="translate(-6,-6) scale(1,1)">
<g>
<path fill="none" stroke="none"/>
<text fill="#000000" stroke="none" font-family="Arial" font-size="13px" font-style="normal" font-weight="normal" text-decoration="none" x="53" y="544.5">-id: Integer {id, unique}</text>
</g>
</g>
<g transform="translate(-6,-6) scale(1,1)">
<g>
<path fill="none" stroke="none"/>
<text fill="#000000" stroke="none" font-family="Arial" font-size="13px" font-style="normal" font-weight="normal" text-decoration="none" x="53" y="559.5">-nom: String {unique}</text>
</g>
</g>
<g transform="translate(-6,-6) scale(1,1)">
<rect fill="#C0C0C0" stroke="none" x="967" y="23" width="121.59999999999991" height="15" opacity="0.2"/>
</g>
<g transform="translate(-6,-6) scale(1,1)">
<rect fill="#C0C0C0" stroke="none" x="967" y="37" width="304" height="258" opacity="0.2"/>
</g>
<g transform="translate(-6,-6) scale(1,1)">
<rect fill="#ffffff" stroke="none" x="960" y="31" width="304" height="257"/>
</g>
<g transform="translate(-6,-6) scale(1,1)">
<path fill="none" stroke="#000000" d="M 960 31 L 1264 31 L 1264 288 L 960 288 L 960 31 Z Z" stroke-miterlimit="10"/>
</g>
<g transform="translate(-6,-6) scale(1,1)">
<rect fill="#ffffff" stroke="none" x="960" y="16" width="121.59999999999991" height="15"/>
</g>
<g transform="translate(-6,-6) scale(1,1)">
<path fill="none" stroke="#000000" d="M 960 16 L 1081.6 16 L 1081.6 31 L 960 31 L 960 16 Z Z" stroke-miterlimit="10"/>
</g>
<g transform="translate(-6,-6) scale(1,1)">
<rect fill="#ffffff" stroke="none" x="960" y="30" width="304" height="258"/>
</g>
<g transform="translate(-6,-6) scale(1,1)">
<path fill="none" stroke="#000000" d="M 960 30 L 1264 30 L 1264 288 L 960 288 L 960 30 Z Z" stroke-miterlimit="10"/>
</g>
<g transform="translate(-6,-6) scale(1,1)">
<g>
<path fill="none" stroke="none"/>
<text fill="#000000" stroke="none" font-family="Arial" font-size="13px" font-style="normal" font-weight="bold" text-decoration="none" x="1066.1318359375" y="48.5">fr.diginamic.bll</text>
</g>
</g>
<g transform="translate(-6,-6) scale(1,1)">
<rect fill="#C0C0C0" stroke="none" x="991" y="63" width="234.4306640625" height="190" opacity="0.2"/>
</g>
<g transform="translate(-6,-6) scale(1,1)">
<rect fill="#ffffff" stroke="none" x="984" y="56" width="234.4306640625" height="190"/>
</g>
<g transform="translate(-6,-6) scale(1,1)">
<path fill="none" stroke="#000000" d="M 984 56 L 1218.4306640625 56 L 1218.4306640625 246 L 984 246 L 984 56 Z Z" stroke-miterlimit="10"/>
</g>
<g transform="translate(-6,-6) scale(1,1)">
<path fill="none" stroke="#000000" d="M 984 81 L 1218.4306640625 81" stroke-miterlimit="10"/>
</g>
<g transform="translate(-6,-6) scale(1,1)">
<path fill="none" stroke="#000000" d="M 984 134 L 1218.4306640625 134" stroke-miterlimit="10"/>
</g>
<g transform="translate(-6,-6) scale(1,1)">
<g>
<path fill="none" stroke="none"/>
<text fill="#000000" stroke="none" font-family="Arial" font-size="13px" font-style="normal" font-weight="bold" text-decoration="none" x="1086.05078125" y="73.5">Crud</text>
</g>
</g>
<g transform="translate(-6,-6) scale(1,1)">
<g>
<path fill="none" stroke="none"/>
<text fill="#000000" stroke="none" font-family="Arial" font-size="13px" font-style="normal" font-weight="normal" text-decoration="none" x="989" y="96.5">-crud: Crud</text>
<path fill="none" stroke="#000000" d="M 989 98.5 L 1054.01904296875 98.5" stroke-miterlimit="10"/>
</g>
</g>
<g transform="translate(-6,-6) scale(1,1)">
<g>
<path fill="none" stroke="none"/>
<text fill="#000000" stroke="none" font-family="Arial" font-size="13px" font-style="normal" font-weight="normal" text-decoration="none" x="989" y="111.5">-emf: EntityManagerFactory {readOnly}</text>
</g>
</g>
<g transform="translate(-6,-6) scale(1,1)">
<g>
<path fill="none" stroke="none"/>
<text fill="#000000" stroke="none" font-family="Arial" font-size="13px" font-style="normal" font-weight="normal" text-decoration="none" x="989" y="126.5">-em: EntityManager {readOnly}</text>
</g>
</g>
<g transform="translate(-6,-6) scale(1,1)">
<g>
<path fill="none" stroke="none"/>
<text fill="#000000" stroke="none" font-family="Arial" font-size="13px" font-style="normal" font-weight="normal" text-decoration="none" x="989" y="149.5">+getCrud()</text>
<path fill="none" stroke="#000000" d="M 989 151.5 L 1051.4990234375 151.5" stroke-miterlimit="10"/>
</g>
</g>
<g transform="translate(-6,-6) scale(1,1)">
<g>
<path fill="none" stroke="none"/>
<text fill="#000000" stroke="none" font-family="Arial" font-size="13px" font-style="normal" font-weight="normal" text-decoration="none" x="989" y="164.5">+create()</text>
</g>
</g>
<g transform="translate(-6,-6) scale(1,1)">
<g>
<path fill="none" stroke="none"/>
<text fill="#000000" stroke="none" font-family="Arial" font-size="13px" font-style="normal" font-weight="normal" text-decoration="none" x="989" y="179.5">+read()</text>
</g>
</g>
<g transform="translate(-6,-6) scale(1,1)">
<g>
<path fill="none" stroke="none"/>
<text fill="#000000" stroke="none" font-family="Arial" font-size="13px" font-style="normal" font-weight="normal" text-decoration="none" x="989" y="194.5">+update()</text>
</g>
</g>
<g transform="translate(-6,-6) scale(1,1)">
<g>
<path fill="none" stroke="none"/>
<text fill="#000000" stroke="none" font-family="Arial" font-size="13px" font-style="normal" font-weight="normal" text-decoration="none" x="989" y="209.5">+delete()</text>
</g>
</g>
<g transform="translate(-6,-6) scale(1,1)">
<g>
<path fill="none" stroke="none"/>
<text fill="#000000" stroke="none" font-family="Arial" font-size="13px" font-style="normal" font-weight="normal" text-decoration="none" x="989" y="224.5">+close()</text>
</g>
</g>
<g transform="translate(-6,-6) scale(1,1)">
<g>
<path fill="none" stroke="none"/>
<text fill="#000000" stroke="none" font-family="Arial" font-size="13px" font-style="normal" font-weight="normal" text-decoration="none" x="989" y="239.5">+closable()</text>
</g>
</g>
<g transform="translate(-6,-6) scale(1,1)">
<rect fill="#C0C0C0" stroke="none" x="967" y="487" width="121.59999999999991" height="15" opacity="0.2"/>
</g>
<g transform="translate(-6,-6) scale(1,1)">
<rect fill="#C0C0C0" stroke="none" x="967" y="501" width="304" height="242" opacity="0.2"/>
</g>
<g transform="translate(-6,-6) scale(1,1)">
<rect fill="#ffffff" stroke="none" x="960" y="495" width="304" height="241"/>
</g>
<g transform="translate(-6,-6) scale(1,1)">
<path fill="none" stroke="#000000" d="M 960 495 L 1264 495 L 1264 736 L 960 736 L 960 495 Z Z" stroke-miterlimit="10"/>
</g>
<g transform="translate(-6,-6) scale(1,1)">
<rect fill="#ffffff" stroke="none" x="960" y="480" width="121.59999999999991" height="15"/>
</g>
<g transform="translate(-6,-6) scale(1,1)">
<path fill="none" stroke="#000000" d="M 960 480 L 1081.6 480 L 1081.6 495 L 960 495 L 960 480 Z Z" stroke-miterlimit="10"/>
</g>
<g transform="translate(-6,-6) scale(1,1)">
<rect fill="#ffffff" stroke="none" x="960" y="494" width="304" height="242"/>
</g>
<g transform="translate(-6,-6) scale(1,1)">
<path fill="none" stroke="#000000" d="M 960 494 L 1264 494 L 1264 736 L 960 736 L 960 494 Z Z" stroke-miterlimit="10"/>
</g>
<g transform="translate(-6,-6) scale(1,1)">
<g>
<path fill="none" stroke="none"/>
<text fill="#000000" stroke="none" font-family="Arial" font-size="13px" font-style="normal" font-weight="bold" text-decoration="none" x="1067.937744140625" y="512.5">fr.diginamic.ui</text>
</g>
</g>
<g transform="translate(-6,-6) scale(1,1)">
<rect fill="#C0C0C0" stroke="none" x="1047" y="583" width="126.7490234375" height="72" opacity="0.2"/>
</g>
<g transform="translate(-6,-6) scale(1,1)">
<rect fill="#ffffff" stroke="none" x="1040" y="576" width="126.7490234375" height="72"/>
</g>
<g transform="translate(-6,-6) scale(1,1)">
<path fill="none" stroke="#000000" d="M 1040 576 L 1166.7490234375 576 L 1166.7490234375 648 L 1040 648 L 1040 576 Z Z" stroke-miterlimit="10"/>
</g>
<g transform="translate(-6,-6) scale(1,1)">
<path fill="none" stroke="#000000" d="M 1040 601 L 1166.7490234375 601" stroke-miterlimit="10"/>
</g>
<g transform="translate(-6,-6) scale(1,1)">
<path fill="none" stroke="#000000" d="M 1040 611 L 1166.7490234375 611" stroke-miterlimit="10"/>
</g>
<g transform="translate(-6,-6) scale(1,1)">
<g>
<path fill="none" stroke="none"/>
<text fill="#000000" stroke="none" font-family="Arial" font-size="13px" font-style="normal" font-weight="bold" text-decoration="none" x="1090.739501953125" y="593.5">App</text>
</g>
</g>
<g transform="translate(-6,-6) scale(1,1)">
<g>
<path fill="none" stroke="none"/>
<text fill="#000000" stroke="none" font-family="Arial" font-size="13px" font-style="normal" font-weight="normal" text-decoration="none" x="1045" y="626.5">+main()</text>
<path fill="none" stroke="#000000" d="M 1045 628.5 L 1089.42724609375 628.5" stroke-miterlimit="10"/>
    </g>
        </g>
        <g transform="translate(-6,-6) scale(1,1)">
            <path fill="none" stroke="#000000" d="M 1103 575 L 1101 247" stroke-miterlimit="10" stroke-dasharray="3"/>
        </g>
        <g transform="translate(-6,-6) scale(1,1)">
            <path fill="none" stroke="#000000" d="M 1105.2714058804047 257.13681862345595 L 1101 247 L 1096.8525268749306 257.1881532515381" stroke-miterlimit="10"/>
        </g>
        <g transform="translate(-6,-6) scale(1,1)">
            <g>
                <path fill="none" stroke="none"/>
                <text fill="#000000" stroke="none" font-family="Arial" font-size="13px" font-style="normal" font-weight="normal" text-decoration="none" x="1115.5" y="410.5">+User</text>
            </g>
        </g>
    </g>
</svg>